<svg xmlns="http://www.w3.org/2000/svg" width="96" height="10" fill="none" xmlns:v="https://vecta.io/nano"><path fill-rule="evenodd" d="M54.393 7.612h.646V2.315h-.646v-.879h1.783v6.175h.646v.879h-2.429v-.879zM14.938 2.289c-1.886 0-3.23 1.189-3.23 3.204 0 1.938 1.266 3.101 3.256 3.075 1.008 0 1.809-.31 2.222-.517V6.94c-.543.336-1.292.646-2.119.646-1.266 0-2.17-.749-2.17-2.17 0-1.395.853-2.17 2.093-2.17.362 0 .801.078 1.085.155v1.111h1.111V2.78c-.362-.181-1.266-.491-2.248-.491zm5.193 1.783c-1.447 0-2.274.904-2.274 2.248s.827 2.274 2.274 2.248c1.447 0 2.274-.93 2.274-2.248s-.827-2.248-2.274-2.248zm0 .827c.775 0 1.111.646 1.111 1.421 0 .801-.336 1.421-1.111 1.421s-1.111-.62-1.111-1.421.336-1.421 1.111-1.421zm2.92 2.713h.62V5.054h-.646v-.879h1.757v.543c.413-.336.956-.646 1.602-.646.775 0 1.292.439 1.292 1.344v2.196h.646v.879h-2.429v-.879h.646V5.519c0-.362-.129-.568-.517-.568-.439 0-.853.233-1.189.491v2.145h.646v.878h-2.429v-.853zm6.253-2.532v2.222c0 .775.284 1.292 1.344 1.318.413 0 .775-.078 1.034-.155v-.827c-.181.052-.413.103-.672.103-.336 0-.568-.078-.568-.491V5.08h1.163v-.878h-1.163V3.116h-1.137v1.085h-.749v.878h.749zm2.842 1.24c0-1.344.827-2.248 2.274-2.248s2.274.93 2.274 2.248-.827 2.248-2.274 2.248c-1.447.026-2.274-.904-2.274-2.248zm3.385 0c0-.775-.336-1.421-1.111-1.421s-1.111.62-1.111 1.421.336 1.421 1.111 1.421c.749 0 1.111-.62 1.111-1.421zm1.783.801v1.214a5.22 5.22 0 0 0 1.705.233c1.447 0 1.783-.672 1.783-1.318 0-.969-.816-1.201-1.491-1.394-.478-.136-.886-.253-.886-.595 0-.207.155-.413.672-.413.181 0 .439 0 .62.052v.594h.904V4.279c-.31-.103-.93-.233-1.524-.233-1.163 0-1.731.568-1.731 1.344 0 .963.823 1.203 1.495 1.398.464.135.856.249.856.565 0 .207-.181.413-.698.413a3.55 3.55 0 0 1-.801-.103v-.543h-.904zm4.082-.801c0-1.344.827-2.248 2.274-2.248s2.274.93 2.274 2.248-.827 2.248-2.274 2.248c-1.447.026-2.274-.904-2.274-2.248zm3.385 0c0-.775-.336-1.421-1.111-1.421s-1.111.62-1.111 1.421.336 1.421 1.111 1.421c.749 0 1.111-.62 1.111-1.421zm4.78 1.24h-.827v.93h5.038V6.656h-1.085v.904h-1.989V5.881h2.274v-.904h-2.274V3.323h1.964v.878h1.059V2.418h-4.987v.904h.827V7.56zm9.896-3.488c-1.369 0-2.119.956-2.119 2.248 0 1.318.723 2.274 2.248 2.274a3.22 3.22 0 0 0 1.55-.388v-.878c-.362.181-.801.388-1.395.388-.775 0-1.188-.362-1.292-1.034h2.92c.052-.155.052-.31.052-.465h0c0-1.189-.62-2.145-1.964-2.145zm.904 1.835H58.45c.078-.543.362-1.034 1.008-1.008.672 0 .853.491.904 1.008zm1.576.439c0-1.499.93-2.274 2.274-2.274.62 0 1.189.155 1.55.284v1.447h-.93v-.827c-.155-.052-.336-.052-.491-.052-.827 0-1.24.517-1.24 1.395 0 .853.388 1.421 1.266 1.421.517 0 .982-.181 1.344-.388v.878c-.413.233-.956.362-1.524.362-1.369 0-2.248-.801-2.248-2.248zm4.987-1.266v2.222c0 .775.258 1.292 1.344 1.318.413 0 .775-.078 1.034-.155v-.827c-.181.052-.413.103-.672.103-.336 0-.569-.078-.569-.491V5.08h1.163v-.878h-1.163V3.116h-1.137v1.085h-.749v.878h.749zm2.868 2.532h.646V5.054h-.646v-.879h1.731v.775c.207-.413.646-.904 1.421-.904h.078v1.137h-.181c-.646 0-1.059.129-1.292.284v2.119h.749v.879h-2.532v-.853h.026zm5.917-3.54c-1.447 0-2.274.904-2.274 2.248s.827 2.274 2.274 2.248c1.447 0 2.274-.93 2.274-2.248s-.827-2.248-2.274-2.248zm0 .827c.775 0 1.111.646 1.111 1.421 0 .801-.336 1.421-1.111 1.421s-1.111-.62-1.111-1.421.336-1.421 1.111-1.421zm2.92 2.713h.62V5.054h-.646v-.879h1.757v.543c.413-.336.956-.646 1.602-.646.775 0 1.292.439 1.292 1.344v2.196h.646v.879h-2.429v-.879h.646V5.519c0-.362-.129-.568-.517-.568-.439 0-.853.233-1.189.491v2.145h.646v.878H78.63v-.853zm6.408 0h-.646v.879h2.429v-.879h-.646V4.175h-1.783v.878h.646v2.558zm1.292-4.832a.76.76 0 0 0-.775-.775c-.439 0-.775.362-.775.775a.76.76 0 1 0 1.55 0zm.982 3.566c0-1.499.93-2.274 2.274-2.274.62 0 1.189.155 1.55.284v1.447h-.93v-.827c-.155-.052-.336-.052-.491-.052-.827 0-1.24.517-1.24 1.395 0 .853.388 1.421 1.266 1.421.517 0 .982-.181 1.344-.388v.878c-.413.233-.956.362-1.525.362-1.395 0-2.248-.801-2.248-2.248zm4.496.775v1.214a5.22 5.22 0 0 0 1.705.233c1.447 0 1.783-.672 1.783-1.318 0-.969-.816-1.201-1.492-1.394-.478-.136-.886-.253-.886-.595 0-.207.155-.413.672-.413.181 0 .439 0 .62.052v.594h.904V4.279c-.31-.103-.93-.233-1.525-.233-1.163 0-1.731.568-1.731 1.344 0 .963.823 1.203 1.495 1.398.464.135.856.249.856.565 0 .207-.181.413-.698.413a3.55 3.55 0 0 1-.801-.103v-.543h-.904z" fill="#fff"/><path d="M8.076 2.314c.068-.102.068-.254-.034-.356-.085-.102-.237-.102-.356-.034-2.78 1.915-2.61 1.932-5.39 0a.26.26 0 0 0-.339.034c-.102.102-.102.237-.034.356 1.932 2.763 1.932 2.593 0 5.373-.068.102-.068.254.034.356s.237.102.356.034c2.763-1.915 2.593-1.932 5.373 0 .102.068.254.068.356-.034s.102-.237.034-.356c-1.915-2.763-1.932-2.593 0-5.373z" fill="#25babe"/><path fill-rule="evenodd" d="M1.958 0A1.95 1.95 0 0 0 0 1.958a1.95 1.95 0 0 0 1.958 1.958c.149 0 .298-.019.446-.056l.217-.054-.12-.189-.445-.651-.047-.065-.08-.002c-.505-.014-.911-.434-.911-.94a.94.94 0 0 1 .94-.94c.506 0 .926.406.94.911l.002.08.065.047.345.235h.001l.298.204.193.141.058-.232c.037-.148.056-.297.056-.446A1.95 1.95 0 0 0 1.958 0zm4.127 1.958A1.95 1.95 0 0 1 8.042 0 1.95 1.95 0 0 1 10 1.958a1.95 1.95 0 0 1-1.958 1.958c-.149 0-.298-.019-.446-.056l-.232-.058.141-.193.204-.298V3.31l.235-.345.047-.065.08-.002c.505-.014.911-.434.911-.94a.94.94 0 0 0-.94-.94c-.506 0-.926.406-.94.911l-.002.08-.065.047-.651.445-.189.12-.054-.217c-.037-.148-.056-.297-.056-.446zM7.596 6.14c.148-.037.297-.056.446-.056A1.95 1.95 0 0 1 10 8.042 1.95 1.95 0 0 1 8.042 10a1.95 1.95 0 0 1-1.958-1.958c0-.149.019-.298.056-.446l.058-.232.193.141.298.204h.001l.345.235.065.047.002.08c.014.505.434.911.94.911a.94.94 0 0 0 .94-.94c0-.506-.406-.926-.911-.94l-.08-.002-.047-.065-.445-.651-.12-.189.217-.054zM0 8.042a1.95 1.95 0 0 1 1.958-1.958c.149 0 .298.019.446.056l.232.058-.141.193-.204.298v.001h0l-.235.345-.047.065-.08.002c-.505.014-.911.434-.911.94a.94.94 0 0 0 .94.94c.506 0 .926-.406.94-.911l.002-.08.065-.047.651-.445.189-.12.054.217c.037.148.056.297.056.446A1.95 1.95 0 0 1 1.958 10 1.95 1.95 0 0 1 0 8.042z" fill="#fff"/></svg>