<svg version="1.1" id="Layer_1" xmlns="http://www.w3.org/2000/svg" xmlns:xlink="http://www.w3.org/1999/xlink" x="0px" y="0px"
	 width="100%" viewBox="0 0 400 400" enable-background="new 0 0 400 400" xml:space="preserve">
<path fill="#000000" opacity="1.000000" stroke="none" 
	d="
M229.000000,401.000000 
	C152.690353,401.000000 76.880722,401.000000 1.035541,401.000000 
	C1.035541,267.732025 1.035541,134.464050 1.035541,1.098030 
	C134.226257,1.098030 267.452606,1.098030 400.839478,1.098030 
	C400.839478,134.333176 400.839478,267.666565 400.839478,401.000000 
	C343.797455,401.000000 286.648712,401.000000 229.000000,401.000000 
M154.500000,37.998440 
	C113.738396,37.998440 72.976799,37.998440 32.285767,37.998440 
	C32.285767,148.976425 32.285767,259.379608 32.285767,369.714233 
	C144.643158,369.714233 256.712982,369.714233 368.714172,369.714233 
	C368.714172,259.023499 368.714172,148.620316 368.714172,37.998440 
	C297.451385,37.998440 226.475693,37.998440 154.500000,37.998440 
z"/>
<path fill="#FEFEFE" opacity="1.000000" stroke="none" 
	d="
M155.000000,37.998440 
	C226.475693,37.998440 297.451385,37.998440 368.714172,37.998440 
	C368.714172,148.620316 368.714172,259.023499 368.714172,369.714233 
	C256.712982,369.714233 144.643158,369.714233 32.285767,369.714233 
	C32.285767,259.379608 32.285767,148.976425 32.285767,37.998440 
	C72.976799,37.998440 113.738396,37.998440 155.000000,37.998440 
M124.363335,266.866455 
	C121.242584,271.389221 118.063782,275.873352 115.020706,280.447815 
	C112.852699,283.706848 112.742004,287.086090 115.495132,290.066101 
	C118.353539,293.160065 121.810944,293.634674 125.421692,291.400543 
	C128.108383,289.738220 130.617264,287.790314 133.286682,286.097931 
	C149.147995,276.042053 164.722870,265.481110 181.010788,256.168701 
	C193.463089,249.049210 206.983200,249.176346 219.826050,255.900452 
	C229.091614,260.751587 238.130066,266.096191 246.950455,271.721497 
	C256.061066,277.531891 264.766937,283.974945 273.686493,290.087738 
	C278.581299,293.442322 282.387665,293.523804 285.470795,290.508789 
	C288.637360,287.412201 288.468109,283.377686 284.957916,278.324554 
	C284.767914,278.051056 284.558350,277.790955 284.372070,277.515015 
	C276.085327,265.239197 267.444763,253.182526 259.649292,240.602249 
	C255.038223,233.160980 250.975677,225.170456 248.061218,216.933426 
	C242.943542,202.469559 248.201447,189.231583 255.727264,177.115692 
	C265.378082,161.578735 275.843384,146.547256 285.979034,131.312164 
	C288.400330,127.672623 288.591949,123.965561 285.516754,120.832047 
	C282.455292,117.712540 278.766022,117.571510 275.118835,120.222107 
	C273.908936,121.101410 272.653168,121.920334 271.392853,122.727066 
	C254.726837,133.395264 238.351944,144.561203 221.290207,154.554291 
	C208.402069,162.102905 194.365189,162.171677 181.113586,155.026886 
	C169.714310,148.880814 158.741837,141.914230 147.783752,134.989044 
	C140.472946,130.368835 133.569672,125.108498 126.382477,120.285957 
	C122.890343,117.942757 119.061615,117.585281 115.842300,120.688225 
	C112.598442,123.814842 112.917656,127.515038 115.243477,131.139664 
	C115.872604,132.120102 116.591827,133.042328 117.235863,134.013687 
	C126.705086,148.295807 136.321228,162.483475 145.594406,176.891846 
	C156.914032,194.479919 158.593018,212.643890 147.363647,230.959595 
	C140.061417,242.869934 132.318359,254.510025 124.363335,266.866455 
M319.206451,327.708038 
	C338.486908,308.976105 341.226837,281.771667 325.964417,260.608887 
	C314.338013,244.487793 288.351379,235.154907 274.510834,242.361938 
	C277.701752,247.049622 280.675751,251.867325 284.148804,256.293396 
	C285.482269,257.992767 287.817047,259.473511 289.929108,259.901672 
	C302.467163,262.443329 311.146942,269.446075 314.884094,281.682861 
	C320.134521,298.874847 309.753998,316.217651 292.148956,320.418488 
	C275.287384,324.441986 258.281616,312.936005 255.186234,295.435211 
	C254.905396,293.847321 254.971039,291.581818 253.974960,290.839050 
	C248.478897,286.740753 242.703018,283.017670 236.766602,278.992004 
	C231.908432,300.895050 241.095993,322.289520 259.594025,333.502472 
	C278.043274,344.685760 301.180847,342.594727 319.206451,327.708038 
M76.181458,321.279907 
	C93.731697,342.055878 120.598122,346.644562 143.025070,332.696503 
	C160.610168,321.759735 171.028244,295.721375 163.995880,279.340546 
	C158.591599,283.014771 153.187668,286.546265 147.984451,290.352142 
	C146.999374,291.072662 146.504639,292.837006 146.301987,294.196960 
	C143.838577,310.729370 130.671173,321.678162 113.863800,321.063080 
	C98.972328,320.518127 85.940605,307.494507 85.087212,292.304352 
	C84.192726,276.382782 95.619514,262.436005 111.581421,259.885101 
	C112.961815,259.664520 114.834679,259.441772 115.527580,258.511536 
	C119.544075,253.119080 123.275337,247.514191 127.253059,241.764404 
	C107.035904,236.853134 86.004425,245.040787 74.475906,261.824768 
	C62.250572,279.623230 62.745186,302.279663 76.181458,321.279907 
M133.614349,73.798920 
	C112.139427,65.869522 88.710838,72.821907 75.212517,91.129562 
	C62.091496,108.925461 62.541348,134.015076 76.181496,151.677536 
	C90.263893,169.912674 114.481995,173.999008 126.942955,169.001160 
	C123.364243,163.734695 119.960167,158.424652 116.187737,153.390640 
	C115.275230,152.172974 113.210220,151.467514 111.566521,151.203720 
	C95.470383,148.620682 84.146515,134.831039 85.112694,118.801460 
	C86.044647,103.339607 98.949127,90.636955 114.400940,89.971260 
	C130.403046,89.281853 143.867340,100.751907 146.282272,117.016853 
	C146.482117,118.362938 147.031082,120.089882 148.021591,120.813736 
	C153.354492,124.711052 158.878326,128.347122 164.506958,132.189911 
	C170.577011,108.259750 158.111649,84.595848 133.614349,73.798920 
M254.627228,81.093697 
	C238.653687,94.534355 231.265503,115.663353 237.121964,131.967957 
	C242.118332,128.562500 247.150238,125.366837 251.878387,121.771667 
	C253.352600,120.650703 254.646347,118.550865 254.934219,116.727287 
	C257.465912,100.689072 271.250275,89.130577 287.152740,89.979553 
	C302.457733,90.796646 315.348572,103.532166 316.092590,118.570717 
	C316.921051,135.316696 305.878448,148.793320 289.450134,151.158829 
	C288.208221,151.337646 286.506836,151.538208 285.896729,152.371368 
	C281.907898,157.818268 278.161041,163.442383 274.224548,169.169479 
	C284.278198,172.292358 296.932892,171.030029 306.813354,166.193726 
	C333.927551,152.921906 343.789948,120.802368 328.676727,94.989670 
	C313.692688,69.397530 280.230743,62.880821 254.627228,81.093697 
z"/>
<path fill="#23BBBE" opacity="1.000000" stroke="none" 
	d="
M124.568062,266.568817 
	C132.318359,254.510025 140.061417,242.869934 147.363647,230.959595 
	C158.593018,212.643890 156.914032,194.479919 145.594406,176.891846 
	C136.321228,162.483475 126.705086,148.295807 117.235863,134.013687 
	C116.591827,133.042328 115.872604,132.120102 115.243477,131.139664 
	C112.917656,127.515038 112.598442,123.814842 115.842300,120.688225 
	C119.061615,117.585281 122.890343,117.942757 126.382477,120.285957 
	C133.569672,125.108498 140.472946,130.368835 147.783752,134.989044 
	C158.741837,141.914230 169.714310,148.880814 181.113586,155.026886 
	C194.365189,162.171677 208.402069,162.102905 221.290207,154.554291 
	C238.351944,144.561203 254.726837,133.395264 271.392853,122.727066 
	C272.653168,121.920334 273.908936,121.101410 275.118835,120.222107 
	C278.766022,117.571510 282.455292,117.712540 285.516754,120.832047 
	C288.591949,123.965561 288.400330,127.672623 285.979034,131.312164 
	C275.843384,146.547256 265.378082,161.578735 255.727264,177.115692 
	C248.201447,189.231583 242.943542,202.469559 248.061218,216.933426 
	C250.975677,225.170456 255.038223,233.160980 259.649292,240.602249 
	C267.444763,253.182526 276.085327,265.239197 284.372070,277.515015 
	C284.558350,277.790955 284.767914,278.051056 284.957916,278.324554 
	C288.468109,283.377686 288.637360,287.412201 285.470795,290.508789 
	C282.387665,293.523804 278.581299,293.442322 273.686493,290.087738 
	C264.766937,283.974945 256.061066,277.531891 246.950455,271.721497 
	C238.130066,266.096191 229.091614,260.751587 219.826050,255.900452 
	C206.983200,249.176346 193.463089,249.049210 181.010788,256.168701 
	C164.722870,265.481110 149.147995,276.042053 133.286682,286.097931 
	C130.617264,287.790314 128.108383,289.738220 125.421692,291.400543 
	C121.810944,293.634674 118.353539,293.160065 115.495132,290.066101 
	C112.742004,287.086090 112.852699,283.706848 115.020706,280.447815 
	C118.063782,275.873352 121.242584,271.389221 124.568062,266.568817 
z"/>
<path fill="#384D60" opacity="1.000000" stroke="none" 
	d="
M318.932983,327.936279 
	C301.180847,342.594727 278.043274,344.685760 259.594025,333.502472 
	C241.095993,322.289520 231.908432,300.895050 236.766602,278.992004 
	C242.703018,283.017670 248.478897,286.740753 253.974960,290.839050 
	C254.971039,291.581818 254.905396,293.847321 255.186234,295.435211 
	C258.281616,312.936005 275.287384,324.441986 292.148956,320.418488 
	C309.753998,316.217651 320.134521,298.874847 314.884094,281.682861 
	C311.146942,269.446075 302.467163,262.443329 289.929108,259.901672 
	C287.817047,259.473511 285.482269,257.992767 284.148804,256.293396 
	C280.675751,251.867325 277.701752,247.049622 274.510834,242.361938 
	C288.351379,235.154907 314.338013,244.487793 325.964417,260.608887 
	C341.226837,281.771667 338.486908,308.976105 318.932983,327.936279 
z"/>
<path fill="#384D60" opacity="1.000000" stroke="none" 
	d="
M75.971344,320.990234 
	C62.745186,302.279663 62.250572,279.623230 74.475906,261.824768 
	C86.004425,245.040787 107.035904,236.853134 127.253059,241.764404 
	C123.275337,247.514191 119.544075,253.119080 115.527580,258.511536 
	C114.834679,259.441772 112.961815,259.664520 111.581421,259.885101 
	C95.619514,262.436005 84.192726,276.382782 85.087212,292.304352 
	C85.940605,307.494507 98.972328,320.518127 113.863800,321.063080 
	C130.671173,321.678162 143.838577,310.729370 146.301987,294.196960 
	C146.504639,292.837006 146.999374,291.072662 147.984451,290.352142 
	C153.187668,286.546265 158.591599,283.014771 163.995880,279.340546 
	C171.028244,295.721375 160.610168,321.759735 143.025070,332.696503 
	C120.598122,346.644562 93.731697,342.055878 75.971344,320.990234 
z"/>
<path fill="#384D60" opacity="1.000000" stroke="none" 
	d="
M133.984329,73.916908 
	C158.111649,84.595848 170.577011,108.259750 164.506958,132.189911 
	C158.878326,128.347122 153.354492,124.711052 148.021591,120.813736 
	C147.031082,120.089882 146.482117,118.362938 146.282272,117.016853 
	C143.867340,100.751907 130.403046,89.281853 114.400940,89.971260 
	C98.949127,90.636955 86.044647,103.339607 85.112694,118.801460 
	C84.146515,134.831039 95.470383,148.620682 111.566521,151.203720 
	C113.210220,151.467514 115.275230,152.172974 116.187737,153.390640 
	C119.960167,158.424652 123.364243,163.734695 126.942955,169.001160 
	C114.481995,173.999008 90.263893,169.912674 76.181496,151.677536 
	C62.541348,134.015076 62.091496,108.925461 75.212517,91.129562 
	C88.710838,72.821907 112.139427,65.869522 133.984329,73.916908 
z"/>
<path fill="#384D60" opacity="1.000000" stroke="none" 
	d="
M254.917816,80.887695 
	C280.230743,62.880821 313.692688,69.397530 328.676727,94.989670 
	C343.789948,120.802368 333.927551,152.921906 306.813354,166.193726 
	C296.932892,171.030029 284.278198,172.292358 274.224548,169.169479 
	C278.161041,163.442383 281.907898,157.818268 285.896729,152.371368 
	C286.506836,151.538208 288.208221,151.337646 289.450134,151.158829 
	C305.878448,148.793320 316.921051,135.316696 316.092590,118.570717 
	C315.348572,103.532166 302.457733,90.796646 287.152740,89.979553 
	C271.250275,89.130577 257.465912,100.689072 254.934219,116.727287 
	C254.646347,118.550865 253.352600,120.650703 251.878387,121.771667 
	C247.150238,125.366837 242.118332,128.562500 237.121964,131.967957 
	C231.265503,115.663353 238.653687,94.534355 254.917816,80.887695 
z"/>
</svg>